<svg width="43" height="36" viewBox="0 0 43 36" fill="none" xmlns="http://www.w3.org/2000/svg">
<rect x="0.956055" width="42.0439" height="35.5294" rx="15" fill="#F34DA1"/>
<path d="M18.548 15.6609C18.548 14.3932 17.5198 13.3652 16.2518 13.3652C14.9838 13.3652 13.9561 14.3932 13.9561 15.6609C13.9561 16.9296 14.9836 17.9571 16.2518 17.9571C17.52 17.9571 18.548 16.9296 18.548 15.6609Z" fill="white"/>
<path d="M27.704 13.8137C26.4363 13.8137 25.4083 14.8417 25.4083 16.1094C25.4083 17.3781 26.4363 18.4051 27.704 18.4051C28.972 18.4051 30 17.3781 30 16.1094C30 14.8417 28.9722 13.8137 27.704 13.8137Z" fill="white"/>
<path d="M25.6188 18.665C25.4592 18.4683 25.2333 18.2405 24.9738 18.0017C24.2816 17.1046 23.1988 16.5241 21.9781 16.5241C20.8917 16.5241 19.9151 16.9841 19.2249 17.7171C18.8328 18.0583 18.4841 18.3913 18.2623 18.6652L18.1138 18.8466C17.4211 19.6912 16.5588 20.7421 16.5651 22.5253C16.5712 24.1813 17.9198 25.5294 19.571 25.5294C20.5141 25.5294 21.3784 25.0934 21.9405 24.3615C22.5022 25.0934 23.3668 25.5294 24.3108 25.5294C25.9613 25.5294 27.3097 24.1815 27.316 22.5253C27.3223 20.7421 26.4598 19.6912 25.7673 18.8466L25.6188 18.665Z" fill="white"/>
<path d="M22.1373 15.0596C23.5345 15.0596 24.6671 13.927 24.6671 12.5298C24.6671 11.1326 23.5345 10 22.1373 10C20.7401 10 19.6075 11.1326 19.6075 12.5298C19.6075 13.927 20.7401 15.0596 22.1373 15.0596Z" fill="white"/>
</svg>
