<svg width="17" height="16" viewBox="0 0 17 16" fill="none" xmlns="http://www.w3.org/2000/svg">
<path d="M5.548 5.66092C5.548 4.39318 4.51977 3.36517 3.2518 3.36517C1.98383 3.36517 0.956055 4.39318 0.956055 5.66092C0.956055 6.92956 1.9836 7.95712 3.2518 7.95712C4.51999 7.95712 5.548 6.92956 5.548 5.66092Z" fill="white"/>
<path d="M14.704 3.81366C13.4363 3.81366 12.4083 4.84166 12.4083 6.1094C12.4083 7.37805 13.4363 8.40515 14.704 8.40515C15.972 8.40515 17 7.37805 17 6.1094C17 4.84166 15.9722 3.81366 14.704 3.81366Z" fill="white"/>
<path d="M12.6188 8.66501C12.4592 8.46828 12.2333 8.24054 11.9738 8.00171C11.2816 7.10455 10.1988 6.52411 8.97813 6.52411C7.89172 6.52411 6.91511 6.98412 6.22487 7.71714C5.83277 8.0583 5.48414 8.39131 5.26229 8.66523L5.11378 8.84657C4.42105 9.6912 3.55876 10.7421 3.5651 12.5253C3.57121 14.1813 4.91977 15.5294 6.571 15.5294C7.51411 15.5294 8.37844 15.0934 8.94055 14.3615C9.5022 15.0934 10.3668 15.5294 11.3108 15.5294C12.9613 15.5294 14.3097 14.1815 14.316 12.5253C14.3223 10.7421 13.4598 9.6912 12.7673 8.84657L12.6188 8.66501Z" fill="white"/>
<path d="M9.13728 5.05965C10.5345 5.05965 11.6671 3.92701 11.6671 2.52982C11.6671 1.13264 10.5345 0 9.13728 0C7.74009 0 6.60745 1.13264 6.60745 2.52982C6.60745 3.92701 7.74009 5.05965 9.13728 5.05965Z" fill="white"/>
</svg>
