<svg width="10" height="11" viewBox="0 0 10 11" fill="none" xmlns="http://www.w3.org/2000/svg">
<path d="M5 6.75C5.69036 6.75 6.25 6.19036 6.25 5.5C6.25 4.80964 5.69036 4.25 5 4.25C4.30964 4.25 3.75 4.80964 3.75 5.5C3.75 6.19036 4.30964 6.75 5 6.75Z" stroke="white" stroke-width="0.5" stroke-miterlimit="10" stroke-linecap="round" stroke-linejoin="round"/>
<path d="M0.833282 5.86674V5.13341C0.833282 4.70007 1.18745 4.34174 1.62495 4.34174C2.37912 4.34174 2.68745 3.80841 2.30828 3.15424C2.09162 2.77924 2.22078 2.29174 2.59995 2.07508L3.32078 1.66258C3.64995 1.46674 4.07495 1.58341 4.27078 1.91258L4.31662 1.99174C4.69162 2.64591 5.30828 2.64591 5.68745 1.99174L5.73328 1.91258C5.92912 1.58341 6.35412 1.46674 6.68328 1.66258L7.40412 2.07508C7.78328 2.29174 7.91245 2.77924 7.69578 3.15424C7.31662 3.80841 7.62495 4.34174 8.37912 4.34174C8.81245 4.34174 9.17078 4.69591 9.17078 5.13341V5.86674C9.17078 6.30007 8.81662 6.65841 8.37912 6.65841C7.62495 6.65841 7.31662 7.19174 7.69578 7.84591C7.91245 8.22507 7.78328 8.70841 7.40412 8.92507L6.68328 9.33757C6.35412 9.53341 5.92912 9.41674 5.73328 9.08757L5.68745 9.00841C5.31245 8.35424 4.69578 8.35424 4.31662 9.00841L4.27078 9.08757C4.07495 9.41674 3.64995 9.53341 3.32078 9.33757L2.59995 8.92507C2.22078 8.70841 2.09162 8.22091 2.30828 7.84591C2.68745 7.19174 2.37912 6.65841 1.62495 6.65841C1.18745 6.65841 0.833282 6.30007 0.833282 5.86674Z" stroke="white" stroke-width="0.5" stroke-miterlimit="10" stroke-linecap="round" stroke-linejoin="round"/>
</svg>
