<svg width="19" height="19" viewBox="0 0 19 19" fill="none" xmlns="http://www.w3.org/2000/svg">
<circle cx="8.5" cy="8.5" r="8.5" fill="#F34DA1"/>
<path d="M12.3149 6.85398C12.2829 5.90173 12.1989 4.9564 12.0563 4C11.2778 4.24637 10.5287 4.5301 9.79295 4.85259C9.38374 4.72526 8.9492 4.65467 8.5 4.65467C8.01481 4.65467 7.54695 4.73633 7.10841 4.88443C6.40329 4.57993 5.68617 4.31142 4.94372 4.07612C4.8051 5.00623 4.72245 5.92388 4.6878 6.84844C4.25193 7.56817 4 8.41661 4 9.32734C4 10.0152 4.53717 10.573 5.19964 10.573C5.86211 10.573 6.39929 10.0152 6.39929 9.32734C6.39929 8.12457 7.34168 7.14602 8.5 7.14602C9.65832 7.14602 10.6007 8.12457 10.6007 9.32734C10.6007 10.5301 9.65832 11.5087 8.5 11.5087C7.83753 11.5087 7.30036 12.0664 7.30036 12.7543C7.30036 13.4422 7.83753 14 8.5 14C10.9806 14 13 11.9045 13 9.32734C13 8.41938 12.7481 7.57093 12.3149 6.85398Z" fill="black"/>
<path d="M16.7594 16.6568L11.7637 15.2274L15.4995 11.6158L16.7594 16.6568Z" fill="#F34DA1"/>
</svg>
